/* XPM */
static char * pgadmin3_xpm[] = {
"44 48 5 1",
" 	c None",
".	c #B0C5EF",
"+	c #000000",
"@	c #FFFFFF",
"#	c #336699",
"............................................",
"....+++++++++++++++++@@@@@++@@@@@@@@@++.....",
"...++@@@@@@@@@@@++@@@####@@@@########@@+....",
"..++@###########@@###########@@########@+...",
".++@############@##############@########@+..",
".++@###########@###############@#########@+.",
"++@############@################@########@++",
"++@###########@##################@########@+",
"+@############@##################@########@+",
"+@###########@####################@#######@+",
"+@###########@#####################@######@+",
"+@###########@#####################@######@+",
"+@###########@###################@@@@#####@+",
"+@###########@#@@@@@###########@@###@#####@+",
"+@###########@@##@@@@#########@#@@@#@####@++",
"+@###########@###@@@@#########@#@@@#@####@+.",
"+@###########@###@@@#@########@#####@####@+.",
"++@##########@#######@########@#####@####@+.",
"++@##########@#######@########@#####@###@++.",
".+@##########@#######@#########@###@####@+..",
".+@##########@#######@#########@###@###@++..",
".+@##########@#######@#########@###@###@++..",
".+@##########@#######@##########@##@###@+...",
"..+@#########@######@###########@##@##@++...",
"..+@#########@######@############@#@##@+....",
"..+@#########@#####@@############@@@#@+.....",
"...+@#########@####@##############@##@+.....",
"...+@#########@####@##############@#@++.....",
"...+@#########@@@##@###############@@++++++.",
"...++@########@++@@@@@###########@@@@@@@@@@.",
"....+@#######@++++@###@##########@#######@@.",
"....+@#######@+++@@##@@##########@#######@+.",
"....++@#####@@@@@@###@@##########@@@@@@@@+..",
".....++@###@+@@#####@+@##########@+++++++...",
"......++@@@+++@@@@@@++@##########@++++......",
".......++++...++++++++@##########@+.........",
"...............++++.++@##########@+.........",
"....................++@##########@+.........",
"....................++@#########@++.........",
"....................++@#########@++.........",
"....................++@#########@++.........",
"....................++@#########@++.........",
"....................++@#########@+..........",
"....................++@#########@+..........",
".....................+@@#######@++..........",
".....................++@######@++...........",
"......................++@@@@@@++............",
".......................++++++++............."};
